<svg xmlns="http://www.w3.org/2000/svg" xmlns:xlink="http://www.w3.org/1999/xlink" width="500" zoomAndPan="magnify" viewBox="0 0 375 374.999991" height="500" preserveAspectRatio="xMidYMid meet" version="1.0"><defs><g/><clipPath id="9cf2b8bbf8"><path d="M 187.5 0 C 83.945312 0 0 83.945312 0 187.5 C 0 291.054688 83.945312 375 187.5 375 C 291.054688 375 375 291.054688 375 187.5 C 375 83.945312 291.054688 0 187.5 0 Z M 187.5 0 " clip-rule="nonzero"/></clipPath></defs><rect x="-37.5" width="450" fill="#ffffff" y="-37.499999" height="449.999989" fill-opacity="1"/><rect x="-37.5" width="450" fill="#ffffff" y="-37.499999" height="449.999989" fill-opacity="1"/><g clip-path="url(#9cf2b8bbf8)"><rect x="-37.5" width="450" fill="#000000" y="-37.499999" height="449.999989" fill-opacity="1"/></g><g fill="#ffffff" fill-opacity="1"><g transform="translate(35.074185, 270.799437)"><g><path d="M 150.515625 -111.265625 C 150.515625 -100.578125 148.039062 -90.882812 143.09375 -82.1875 C 138.144531 -73.5 130.84375 -66.601562 121.1875 -61.5 C 111.539062 -56.394531 99.859375 -53.84375 86.140625 -53.84375 L 65.078125 -53.84375 L 65.078125 0 L 11.96875 0 L 11.96875 -169.40625 L 86.140625 -169.40625 C 106.878906 -169.40625 122.789062 -164.140625 133.875 -153.609375 C 144.96875 -143.085938 150.515625 -128.972656 150.515625 -111.265625 Z M 80.15625 -95.71875 C 91.164062 -95.71875 96.671875 -100.898438 96.671875 -111.265625 C 96.671875 -121.628906 91.164062 -126.8125 80.15625 -126.8125 L 65.078125 -126.8125 L 65.078125 -95.71875 Z M 80.15625 -95.71875 "/></g></g></g><g fill="#ffffff" fill-opacity="1"><g transform="translate(190.366173, 270.799437)"><g><path d="M 78.25 1.671875 C 57.988281 1.671875 41.273438 -3.070312 28.109375 -12.5625 C 14.953125 -22.050781 7.816406 -35.96875 6.703125 -54.3125 L 63.171875 -54.3125 C 63.960938 -44.582031 68.269531 -39.71875 76.09375 -39.71875 C 78.96875 -39.71875 81.398438 -40.394531 83.390625 -41.75 C 85.378906 -43.101562 86.375 -45.21875 86.375 -48.09375 C 86.375 -52.082031 84.21875 -55.3125 79.90625 -57.78125 C 75.601562 -60.257812 68.90625 -63.09375 59.8125 -66.28125 C 48.96875 -70.113281 39.992188 -73.863281 32.890625 -77.53125 C 25.796875 -81.195312 19.695312 -86.539062 14.59375 -93.5625 C 9.488281 -100.582031 7.015625 -109.59375 7.171875 -120.59375 C 7.171875 -131.601562 10.003906 -140.972656 15.671875 -148.703125 C 21.335938 -156.441406 29.070312 -162.304688 38.875 -166.296875 C 48.6875 -170.285156 59.738281 -172.28125 72.03125 -172.28125 C 92.757812 -172.28125 109.222656 -167.492188 121.421875 -157.921875 C 133.628906 -148.347656 140.054688 -134.867188 140.703125 -117.484375 L 83.515625 -117.484375 C 83.347656 -122.273438 82.144531 -125.707031 79.90625 -127.78125 C 77.675781 -129.851562 74.96875 -130.890625 71.78125 -130.890625 C 69.550781 -130.890625 67.71875 -130.128906 66.28125 -128.609375 C 64.84375 -127.097656 64.125 -124.984375 64.125 -122.265625 C 64.125 -118.441406 66.238281 -115.289062 70.46875 -112.8125 C 74.695312 -110.34375 81.4375 -107.351562 90.6875 -103.84375 C 101.375 -99.851562 110.1875 -96.023438 117.125 -92.359375 C 124.0625 -88.691406 130.082031 -83.585938 135.1875 -77.046875 C 140.289062 -70.503906 142.84375 -62.289062 142.84375 -52.40625 C 142.84375 -42.03125 140.289062 -32.734375 135.1875 -24.515625 C 130.082031 -16.304688 122.664062 -9.890625 112.9375 -5.265625 C 103.207031 -0.640625 91.644531 1.671875 78.25 1.671875 Z M 78.25 1.671875 "/></g></g></g></svg>